<svg width="24" height="24" viewBox="0 0 24 24" fill="none" xmlns="http://www.w3.org/2000/svg">
<path d="M22.3536 2.35355C22.5488 2.15829 22.5488 1.84171 22.3536 1.64645C22.1583 1.45118 21.8417 1.45118 21.6464 1.64645L12 11.2929L2.35355 1.64645C2.15829 1.45119 1.84171 1.45119 1.64645 1.64645C1.45118 1.84171 1.45118 2.15829 1.64645 2.35355L11.2929 12L1.64645 21.6464C1.45119 21.8417 1.45119 22.1583 1.64645 22.3536C1.84171 22.5488 2.15829 22.5488 2.35355 22.3536L12 12.7071L21.6464 22.3536C21.8417 22.5488 22.1583 22.5488 22.3536 22.3536C22.5488 22.1583 22.5488 21.8417 22.3536 21.6464L12.7071 12L22.3536 2.35355Z" fill="#fff"/>
</svg>
