<?xml version="1.0" encoding="UTF-8" standalone="no"?>
<svg
   width="1600"
   height="174"
   viewBox="0 0 1600 174"
   fill="none"
   version="1.1"
   id="svg1"
   sodipodi:docname="header_mod.svg"
   inkscape:version="1.3.2 (091e20e, 2023-11-25, custom)"
   xmlns:inkscape="http://www.inkscape.org/namespaces/inkscape"
   xmlns:sodipodi="http://sodipodi.sourceforge.net/DTD/sodipodi-0.dtd"
   xmlns="http://www.w3.org/2000/svg"
   xmlns:svg="http://www.w3.org/2000/svg">
  <defs
     id="defs1" />
  <sodipodi:namedview
     id="namedview1"
     pagecolor="#ffffff"
     bordercolor="#000000"
     borderopacity="0.25"
     inkscape:showpageshadow="2"
     inkscape:pageopacity="0.0"
     inkscape:pagecheckerboard="0"
     inkscape:deskcolor="#d1d1d1"
     inkscape:zoom="4"
     inkscape:cx="1639.625"
     inkscape:cy="102.625"
     inkscape:window-width="3840"
     inkscape:window-height="2036"
     inkscape:window-x="-12"
     inkscape:window-y="-12"
     inkscape:window-maximized="1"
     inkscape:current-layer="svg1" />
  <a
     id="a2">
    <path
       d="m 1531.6,94 c -0.67,0 -1.35,1.5e-4 -2.01,0.0037 -2.31,-0.0036 -4.58,-0.0075 -6.81,-0.0075 -46.53,0 -76.67,0.63255 -90.42,2.40705 -173.43,16.6767 -199.86,75.0127 -291.78,75.0127 -0.22,0 -0.43,0 -0.63,-0.004 -22.85,1.322 -45.26,1.981 -67.227,1.981 -34.957,0 -68.788,-1.669 -101.496,-5.015 -14.482,-0.152 -51.322,-7.366 -110.531,-21.641 L 669.933,87.8462 c -45.002,-9.9659 -74.009,-14.9491 -87.017,-14.9491 -1.514,0 -2.81,0.0689 -3.893,0.2029 l -30.93,-0.0906 c -20.772,0.8582 -41.892,3.0709 -63.356,6.638 -21.464,3.567 -43.311,8.0068 -65.539,13.3157 C 305.121,122.702 234.429,139.701 207.12,143.956 195.26,147.552 156.5802,152.361 91.0771,158.387 68.8601,160.592 41.6746,161 9.5169,161 6.3917,161 3.2194,161.022 0,161 V 0 L 1600,-0.17275768 V 94 c -0.2043,0.0041 -0.2974,1.52e-4 -0.5,0 -44.3099,-0.03325 -46.195,0 -67.9,0 z"
       fill="#000000"
       id="path1"
       sodipodi:nodetypes="scscscscccsccccccsccccss" />
  </a>
</svg>
