<svg width="1440" height="174" viewBox="0 0 1440 174" fill="none" xmlns="http://www.w3.org/2000/svg"><path d="M1451.6 93.7452C1450.93 93.7452 1450.25 93.7455 1449.59 93.7491C1447.28 93.7455 1445.01 93.7416 1442.78 93.7416C1396.25 93.7416 1366.11 94.6288 1352.36 96.4033C1178.93 113.08 1152.5 171.416 1060.58 171.416C1060.36 171.416 1060.15 171.416 1059.95 171.412C1037.1 172.734 1014.69 173.393 992.723 173.393C957.766 173.393 923.935 171.724 891.227 168.378C876.745 168.226 839.905 161.012 780.696 146.737L589.933 87.8462C544.931 77.8803 515.924 72.8971 502.916 72.8971C501.402 72.8971 500.106 72.966 499.023 73.1L468.093 73.0094C447.321 73.8676 426.201 76.0803 404.737 79.6474C383.273 83.2144 361.426 87.6542 339.198 92.9631C225.121 122.702 154.429 139.701 127.12 143.956C115.26 147.552 76.5802 152.361 11.0771 158.387C-11.1399 160.592 -38.3254 161.693 -70.4831 161.693C-73.6083 161.693 -76.7806 161.682 -80 161.66L-79.9927 -174L1520 -173.996L1520 99.2714C1496.29 95.5921 1473.49 93.7452 1451.6 93.7452Z" fill="black"/></svg>